<svg xmlns="http://www.w3.org/2000/svg" height="800" width="1200" viewBox="-5.41575 -5.942925 46.9365 35.65755"><defs><clipPath clipPathUnits="userSpaceOnUse" id="c"><path d="M42.52 503.985h114.803v75.417H42.52z"/></clipPath><clipPath clipPathUnits="userSpaceOnUse" id="b"><path d="M47.055 509.608h102.344v67.384H47.055z"/></clipPath><clipPath clipPathUnits="userSpaceOnUse" id="a"><path d="M42.52 503.985h114.803v75.417H42.52z"/></clipPath></defs><g clip-path="url(#a)" transform="matrix(.35278 0 0 -.35278 -16.5998 203.55)"><path d="M91.0402 554.0942c-.071-.002-.114-.003-.114-.003s.043 0 .114.003" fill="#00aeef"/><path d="M117.5874 510.2158l-.026.02.363.663.034-.02c.659-.418 1.076-.496 1.746-.498.385 0 .711.029.936.12.223.093.344.236.345.492.001.097-.014.199-.063.283-.111.18-.485.243-1.092.241-1.209-.001-1.376.055-1.616.167-.382.18-.584.584-.583.994.003 1.016 1.024 1.315 1.847 1.317.756 0 1.41-.173 2.07-.535l.032-.017-.354-.685-.034.021c-.574.34-1.031.461-1.698.461-.325.001-.59-.038-.768-.123-.179-.086-.27-.208-.271-.392-.001-.09.015-.184.063-.253.09-.141.344-.212 1.132-.21.552 0 1.079-.022 1.476-.183.398-.159.662-.47.66-1.016.001-.584-.25-.952-.623-1.165-.373-.213-.862-.277-1.349-.277-.756 0-1.507.058-2.227.595m-13.3957-.47h-3.737v4.127h3.655v-.764h-2.857v-.852h1.663v-.764h-1.663v-.982h2.939v-.728zm-40.9308 0h-3.738v4.127h3.657v-.764h-2.858v-.852h1.663v-.764h-1.663v-.982h2.939v-.728zm11.3735 0h-3.737v4.127h3.655v-.764h-2.857v-.852h1.664v-.764h-1.664v-.982h2.939v-.728zm23.6809 0h-.799v2.762l-1.459-2.175-.031-.046-.031.046-1.449 2.174v-2.761h-.799v4.127h.782l.011-.016 1.486-2.285 1.505 2.285.011.016h.773v-4.09zm-14.5546 3.4795c-.806 0-1.672-.447-1.672-1.428 0-.97.817-1.405 1.627-1.405.816 0 1.695.447 1.695 1.428 0 .971-.829 1.405-1.65 1.405m-.052-3.613c-1.175 0-2.364.747-2.364 2.177v.11c0 1.383 1.219 2.107 2.423 2.107 1.186 0 2.387-.749 2.387-2.178 0-1.455-1.231-2.216-2.446-2.216m-29.3448.89h1.504c.817 0 1.345.516 1.345 1.315 0 .825-.49 1.298-1.345 1.298h-1.504zm1.504-.766h-2.269v4.144h2.269c1.262 0 2.111-.826 2.111-2.056 0-1.268-.829-2.088-2.111-2.088m11.4522.0005h-.72l-.011.021-2.122 4.069-.028.054h.87l.01-.02 1.649-3.174 1.663 3.174.011.02h.87l-.029-.054-2.153-4.069zm12.6581 0h-3.249v4.144h.765v-3.379h2.484v-.728zm8.7955 2.2427h1.543c.755 0 .929.102.929.553 0 .441-.207.583-.851.583h-1.621zm0-2.243h-.766v4.144h2.528c.51 0 .628-.037.876-.186.364-.215.599-.671.599-1.162 0-.405-.149-.761-.42-1.003-.345-.303-.549-.315-1.274-.315h-1.543v-1.441zm21.4027.0003h-.745l-.011.014-2.481 2.947v-2.961h-.765v4.144h.753l.011-.013 2.473-2.939v2.952h.765v-4.107zm4.3171 0h-.773v3.379h-1.54v.765h3.885v-.765h-1.572v-3.342zm13.1998 2.2427h1.542c.756 0 .93.102.93.553 0 .441-.207.583-.851.583h-1.621zm0-2.243h-.765v4.144h2.527c.51 0 .628-.037.875-.186.365-.215.6-.671.6-1.162 0-.405-.149-.761-.421-1.003-.344-.303-.548-.315-1.274-.315h-1.542v-1.441zm8.0314.0003h-3.249v4.145h.765v-3.379h2.484v-.729zm3.742-.1292c-1.24 0-2.575.685-2.575 2.19 0 1.453 1.244 2.213 2.473 2.213.766 0 1.486-.259 2.136-.77l.027-.02-.018-.029-.369-.581-.021-.033-.032.022c-.595.414-1.045.638-1.715.638-.852 0-1.715-.495-1.715-1.44 0-.979.901-1.417 1.793-1.417.636 0 1.175.175 1.748.567l.035.025.019-.04.306-.636.014-.028-.026-.019c-.643-.444-1.285-.642-2.08-.642m-58.9022 17.6772h3.571c1.018 0 1.475.029 1.903.329.442.307.726.904.726 1.52 0 1.664-1.491 1.912-2.38 1.912h-3.82zm8.203-6.517h-1.953l-.028.045-3.133 4.775h-3.089v-4.82h-1.697v11.975h4.706c1.89 0 2.47-.066 3.395-.666.907-.594 1.493-1.744 1.493-2.927 0-1.087-.477-2.136-1.274-2.808-.553-.461-1.033-.6-1.623-.71l3.109-4.715zm8.1784 6.517h3.57c1.019 0 1.476.029 1.904.329.441.307.726.904.726 1.52 0 1.664-1.491 1.912-2.38 1.912h-3.82zm8.203-6.517h-1.953l-.028.045-3.132 4.775h-3.09v-4.82h-1.697v11.975h4.706c1.889 0 2.469-.066 3.395-.666.907-.594 1.493-1.744 1.493-2.927 0-1.087-.477-2.136-1.275-2.808-.553-.461-1.032-.6-1.622-.71l3.109-4.715zm25.1784-.1077h-1.697v10.278h-4.258v1.696h10.228v-1.696h-4.273v-10.181zm14.7992 0h-1.696v10.278h-4.259v1.696h10.228v-1.696h-4.273v-10.181zm-96.3469 6.9681h4.107c.97 0 2.126.299 2.126 1.725 0 .656-.369 1.2-.988 1.457-.123.047-.426.128-1.06.128h-4.185zm0-5.272h4.107c1.407 0 1.732.138 2.093.432.38.297.579.734.579 1.263 0 1.248-.899 1.881-2.672 1.881h-4.107zm4.107-1.696h-5.832v11.974h5.832c2.368 0 3.838-1.286 3.838-3.359 0-.977-.302-1.667-1.035-2.349 1.025-.699 1.565-1.696 1.565-2.891 0-.971-.407-1.868-1.147-2.524-.87-.771-1.65-.851-3.221-.851m12.7679 5.3467h3.737l-1.85 4.416zm7.677-5.347h-1.697l-.024.055-1.535 3.612h-5.175l-1.479-3.611-.024-.056h-1.7l.059.138 5.054 11.781.023.055h1.448l.023-.055 4.968-11.781zm40.4613 5.347h3.738l-1.849 4.416zm7.678-5.348h-1.698l-.024.056-1.534 3.612h-5.176l-1.479-3.611-.023-.057h-1.701l.06.14 5.053 11.781.024.055h1.448l.024-.056 4.968-11.781z" fill="#375a32"/><path d="M91.7733 553.9648c-.071-.002-.114-.003-.114-.003s.043 0 .114.003" fill="#2bace2"/><path d="M91.4157 566.2672c-.199.054-.534-.011-.534.199 0 .209-.168.335-.294.189-.126-.148-.252-.257-.408-.21-.388.115-.723-.147-.65-.346.073-.199.272-.21.168-.398-.106-.189.02-.168-.106-.304-.125-.136-.093-.273-.009-.377.083-.105 1.33-.367 1.665.283.335.649.398.901.168.964m5.0652-1.0439l-.142.02-.195.02-.157.111-.131.028-.124-.035-.103-.11-.093-.07-.146-.019-.027-.021.002-.029.066-.048.226-.044.237-.103.154.057.461.133.05.045-.01.027z" fill="#fff"/></g><g clip-path="url(#b)" transform="matrix(.35278 0 0 -.35278 -16.5998 203.55)"><path d="M99.694 554.299l-.087.002-.21-.171-.051-.11-.006-.1.065-.167.063-.041.073.006.169.153.079.136.019.131-.031.08z" fill="#fff"/><path d="M109.4753 559.7329l-.07-.036-.237.034-.072-.024.002-.031.083-.082.077-.084.039-.171-.032-.129-.061-.048-.101-.006-.077-.029-.07-.148-.01-.081.083-.245-.012-.091-.061-.043-.036.005-.15.126-.076.02-.071-.034-.128-.197-.052-.323-.044-.118-.082-.021-.282.098-.14-.002-.127-.087-.309-.174-.1-.116-.084-.078-.134-.013-.241.084-.084.081-.072.022-.2-.071-.114-.017-.027.022-.029.082-.044.063-.147.072-.09.015-.035-.017-.014-.035.007-.039.132-.142.162-.104.177-.256.062-.142-.013-.189.013-.071.079-.083.116-.153.034-.13-.03-.185-.141-.345-.11-.104-.066-.093-.082-.083-.085-.008-.202.07-.326.05-.256-.012-.069-.04-.009-.032.018-.032.139-.08.266-.057.226.01.225-.023.339-.038.426-.056.297-.133.195-.18.071-.199-.02-.32.056-.111.021-.121-.063-.206-.088-.231-.086-.129-.255-.176-.114-.207-.07-.041-.165.022-.116-.096-.144-.072-.175-.01-.111-.098-.081-.012-.161.059-.027-.009-.051-.11-.102-.059-.027-.081-.127-.195-.134-.08-.067-.095-.111-.104-.089-.008-.15.071-.064-.008-.069-.095-.085-.025-.146.012-.082-.012-.344-.035-.533-.165-.137-.008-.734.18-.208.114-.137.02-.206-.064-.136-.026-.149.017-.057.049-.058.21-.053.055-.645.214-.215.106-.273.211-.2.121-.208.062-.081.082-.068.036-.038-.01-.14-.13-.212-.273-.159-.271-.072-.192-.099-.497-.035-.339-.016-.456.045-.276.071-.18.144-.231.087-.074.083-.021.089.021.076-.002.156-.166.107-.053.474-.118.707-.098.424-.061.051-.044-.009-.028-.082-.084-.214-.055-.341-.017-.296-.013-1.708.167-.301.079-.082-.009-.162-.108-.512-.132-.314-.116-.247-.076-.41.019-.194-.023-.33-.083-.326.042-.253.009-.67-.019-.185.032-.023.029.002.036.021.032.097.068.195.074.506.084.46.132.549.025.21.057.265.163.183.193.119.202.051.22-.058.364-.01.352.063.58.007.347-.046.166-.13.139-.115.042-.114-.029-.12-.097-.14-.073-.398-.033-.186-.083-.192-.076-.181-.03-.244.017-.055.045-.002.037.057.106.146.069.141.127.198.289-.004.035-.065.046-.141.021-.294-.03-.03-.025-.014-.036-.009-.298-.091-.178-.262-.223-.237-.137-.286-.096-.082.019-.065.098-.08.026-.318-.056-.363-.068-.391.034-.243-.082-.138-.026-.083.024-.085.129-.107.163-.105.055-.231.038-.023.027-.002.038.07.149.11.163.018.066-.054.053-.129.025-.083-.025-.021-.03-.021-.142-.044-.065-.115-.206-.062-.151-.058-.052-.202-.002-.254.011-.15-.063-.307-.016-.237-.087-.163.021-.073-.034-.212-.11-.283-.04-.085-.075-.11-.057-.091.005-.055.059-.003.087.078.245-.015.03-.027.011-.13-.026-.286.034-.221.049-.098.064-.101.167-.082.078-.091.021-.197-.023-.144.019-.052.055-.045.172-.041.065-.036.007-.127-.028-.176.007-.077-.007-.061-.101-.068-.04-.126-.007-.058.049-.063.04-.036-.01-.059-.053-.17-.153-.089-.013-.069.043-.064.042-.138-.011-.067.039-.026.137.025.248.08.187.325.429.055.104.038.07.184.032.075.034v.033l-.03.022-.047.008-.093-.021-.138-.015-.072.039-.025.084.017.091.095.174.007.171.065.099.152.062.189.079.039.069.011.149.041.194.055.049.206.061-.006.011h-.081l-.076.021-.051.058-.019.144.031.177-.019.028-.138.08-.031.079.006.092.096.173.113.103.047.113.193.292.072.252.03.022.044.004.113-.052.114-.048.079.011.146.017.122-.042.081-.077.116-.101.131-.034.091.018.088.074.19.027.029.022.004.172.041.07.119.095.182.089.017.03-.005.034-.09.076-.126.142-.021.082.036.072.161.109.168.209.175.199.138.077.269.054.193.075.038.065-.011.095.005.148.051.11.19.187.214.108.407.076.123.037.133.03.091-.018.024-.028.042-.12.062-.044.138-.024.168.049.277.044.143.072.168.155.044.06-.01.033-.027.022-.189-.005-.757-.105-.087.012-.106.057-.114.041-.127-.013-.394-.144-.208-.06-.152.004-.109.051-.138.186-.122.145-.11.054-.085-.009-.212-.166-.088-.019-.143.023-.176.002-.065.041-.046.119.006.093.205.391.004.07-.078.081-.031.076.022.085.127.144.19.131.189.027.087.076.291.244.404.239-.028.265-.03.024-.046.002-.214-.06-.162-.055-.172-.15-.106-.053-.142.013-.081-.022-.07-.093-.092-.069-.291-.034-.197.021-.105.061-.06.013-.029-.022-.103-.167-.119-.258-.109-.157-.12-.044-.136.027-.231.144-.036.074v.085l.049.114.314.331.16.163.117.203.015.148-.045.386.015.18.148.388.178.305-.036.114.004.078.064.1.082.024.271-.056.084.022.02.036.018.14.132.193.204.224.199.126.061.101.055.05.261.008.22.049.205.117.128.139.159.272.127.142.076.029.288-.086.193-.02.127.038.105.11.134.038-.055.09.011.082.059.051.086.021.16-.052.375-.111.146-.015.146-.015.122-.093.189-.131.13.006.208.065.194.126.08.139-.006.087-.047.062-.251.125-.082.08-.017.081.047.116.111.106.029.065-.019.03-.039.016-.249.073-.065.043-.03.079.006.2.057.106.285.305.074.027.128-.027.031.015.154.169.275.157.104.114.019.07-.02.026-.043.015-.151-.011-.148-.004-.072.038-.07.144-.099.117-.032.079.016.085.053.056.208.059.104.112.304.288.136.186.072.248.076.086.242.134.335.094.193.074.351.293.243.137.075.014.142-.07.171-.046.251.015.522.123.281.04.249-.021.16-.057.138-.004.18-.014.142-.074.102-.112.1-.061.224-.008.116-.049.082-.131.034-.412.037-.075.08-.02.125.041.284.091.204.013.13-.034.175-.041.231.038.239-.088.09.008.209.117.078.006.124-.092.24-.082.241-.136.14-.021.083.026.301.29.112.049.64.165.259.007.167-.046.164-.107.291-.352.116-.207.043-.333.04-.068.205-.063.183-.192.199-.177.076-.318.177-.309.013-.126-.038-.07-.127-.088-.074-.089-.007-.078.022-.027.038-.013.188.023.381.102.31.062.135-.016.098-.065.024-.066.168-.298.009-.127-.072-.197-.168-.261-.109-.214-.04-.263.022-.027.039-.013.161-.002.084-.024.06-.101.062-.049.073-.014.068.036.081.023.067-.038.059-.265.06-.1.082-.025.13.034.14-.015.102-.059.099-.115.061-.211-.006-.139-.066-.206-.429-.697-.213-.216-.122-.147-.037-.126.02-.091.045-.145-.012-.116-.111-.099.008-.026.095-.072.095-.004.138.082.146-.003 1.017-.006.131-.027.051-.057.04-.121.002-.154-.046-.168-.109-.214-.04-.121.019-.088.071-.144.23-.04.159-.107.064-.097.02-.184.032-.124.13-.138.129-.301.068-.255.019-.127zm5.029 6.211c-3.756 9.111-14.184 13.453-23.295 9.697-9.111-3.756-13.452-14.186-9.697-23.297 3.756-9.111 14.187-13.452 23.295-9.696 9.111 3.755 13.452 14.185 9.697 23.296" fill="#375a32"/></g><g clip-path="url(#c)" transform="matrix(.35278 0 0 -.35278 -16.5998 203.55)"><path d="M105.379 558.4404l-.307.07-.2-.011-.241.009-.074-.032-.081-.079.005-.029.029-.021.316-.066.246-.076.101-.06.135-.029.088.021.133.139.019.063-.022.029z" fill="#fff"/></g></svg>