<svg xmlns="http://www.w3.org/2000/svg" height="800" width="1200" viewBox="-8.95833 -4.2809 77.63886 25.6854"><g fill-rule="evenodd"><path d="M53.0297 14.9391c-.6764.0871-1.5313.3766-3.415.608-2.4441.2895-4.0943.3742-6.6086.2392-3.9033-.21-5.9948-.794-7.4081-.9628-2.5027-.459-2.4138-.2025-.7944.3765 3.5335 1.39 7.4408 1.9115 10.643 1.9234 4.6686.0174 8.144-.9201 8.3785-1.0552.3527-.2027-.3244-1.2733-.7954-1.129" fill="#f37021"/><path d="M28.9375 4.0444c-.4309 0-.7938.095-.6805.461l2.3089 7.5271.0274.0884c.0447.1751.318.2698.4986.2698h.862c.2495 0 .3854-.0476.476-.2543l.0475-.1039 2.095-4.6643c.1596-.318.5785-.3085.7368.0253l1.9369 4.639.0367.0884c.0681.1751.3178.2698.4992.2698h.8614c.2502 0 .4087-.0476.4765-.2543l.0356-.1039 2.5048-7.4c.1586-.445-.2504-.5876-.5674-.5876h-.7483c-.5218 0-.8617.1425-.9746.4925L38.059 8.612c-.0682.2543-.2876.2543-.4005 0l-1.4258-4.0928c-.1142-.2547-.2497-.5086-.7033-.4294l-.9049-.0104c-.2492.0476-.41.281-.524.5189L32.3792 8.612c-.1133.2224-.4616.2224-.5297 0l-1.143-4.0907c-.113-.3977-.3857-.477-.8166-.477zM7.711 9.0987v.001c0 1.0811-.681 1.939-2.858 1.939h-.6577c-.8615 0-1.2925.0783-1.2925-.4626v-3.352s.2496-.2863.9527-.2863h1.0653C7.3466 6.8901 7.71 8.0173 7.711 9.098v.0004M2.9028 2.3429s.2496-.4765.9527-.4765h.499c2.4486-.0476 2.8117.8745 2.8117 1.9871 0 1.065-.68 1.9237-2.8574 1.9237h-.2722c-.8388 0-1.1338-.034-1.1338-.4315zm4.558 3.8335c-.7479-.095-.8387-.131-.0447-.2747.816-.1265 2.1773-.8241 2.1773-2.4461 0-1.574-1.1117-2.8615-4.514-2.8615H1.0433C.3624.5941 0 .7055 0 1.1669v10.4088c0 .1955.0631.3437.1864.4558l.0043.001H.1864c.337.3056 1.123.3427 2.2855.3427h2.7442c.915 0 1.7714-.1114 2.507-.342h-.0157l.0157-.0007c1.4718-.4614 2.4595-1.4012 2.4595-2.8852 0-.0164 0-.0325-.0003-.049-.0237-2.1852-1.596-2.7639-2.7214-2.922M51.7398 4.045c-.3635 0-.7266.063-.7266.4609v5.1666c0 .9654.4367 1.8776 1.341 2.36.4212.2241.943.3545 1.5694.3545 1.0993 0 1.7482-.0771 2.5011-.3545.2877-.1068.59-.2424.9385-.4139v.2227c0 .0624.0005.1258.0005.1912-.001.5451-.038 1.1838-.6056 1.6408l-.0057.003-.5468.3101-.0015.001-.0006.0006c-.0284.01-.0576.0212-.0873.032-.4533.2537-.9306.3655-1.5198.556-.295.0954-.5216.3811-.3395.6197l.3395.4615c.1366.1905.4086.2862.8165.1751.93-.2546 1.565-.3823 2.6536-1.0816.3547-.2208.6357-.4748.8578-.7627.4195-.5437.628-1.2016.7245-1.955v-.0004h.0005c.0545-.4292.0729-.8877.0729-1.3746V4.569c0-.334-.1815-.524-.6579-.524h-1.1115c-.4536 0-.6346.1743-.6346.4924v4.903c0 .7476-.907 1.4155-1.9503 1.4155-1.1113 0-1.9735-.6679-1.9735-1.4154V4.4899c0-.1114-.2487-.445-.5891-.445zm-4.4117 5.0537c.1377.2665.148.6342.1524 1.0824.0123 1.165-.9073 1.3995-2.0634 1.3995h-.2499c-1.1561 0-1.5874-.652-1.5874-1.3995 0-.3779.108-.7808.3678-1.0824h.0004c.2435-.2813.6206-.4739 1.1674-.4739l.8288-.02c.8308-.0227 1.2092.1548 1.384.4936m-5.0611 2.9344c.64.3937 1.5038.6122 2.4468.6122 2.0865 0 2.336-.2392 3.2432-.2392.2272 0 .4764.0483.7032.0641.3798.0283.7603-.1098.8445-.437a.5943.5943 0 00.017-.1427V6.9858c0-2.4484-1.2697-3.1796-4.0596-3.1796-1.746 0-1.9044.1269-2.653.3816-.2489.0795-.3628.2066-.2726.3657l.3408.6204c.0908.1587.3176.1587.5668.0946.657-.1748.8619-.1748 1.2928-.1748 1.0201 0 2.381.143 2.381 1.3032l.024.2895c0 .715-.9543.8281-1.9076.8281h-.2265c-2.2912 0-3.299.629-3.6708 1.5842h-.0004c-.1312.3404-.183.721-.183 1.1304 0 .7634.4289 1.3824 1.1134 1.8037M16.0442 7.6533H14.661c-.4312 0-1.27-.2221-1.27-.8586V6.604c0-.7154 1.0208-1.4784 2.2905-1.4784 1.0433 0 1.9275.4768 1.9275 1.2875 0 .922-.7256 1.2401-1.5647 1.2401m-.2268-3.8473c-2.812 0-4.6489 1.6375-4.6489 3.8154v1.4771c.017 1.2435.7319 2.318 1.9892 2.9328l.0097.001h-.0097c.7139.348 1.6018.5495 2.637.5495.8515 0 2.2277-.229 3.2382-.5495h-.0344.0344a7.6563 7.6563 0 00.345-.1183c.1584-.064.431-.2066.2265-.4294l-.6123-.652c-.136-.143-.317-.2067-.612-.1114-.4766.1913-1.7463.5255-2.3813.5255-1.587 0-2.3584-1.0177-2.3584-1.9086a.531.531 0 01.0551-.2399h.0007c.1447-.2901.5555-.4439 1.0098-.4439h2.3357c1.4971 0 2.812-.8577 2.812-1.7166v-.8265c0-1.4153-1.8366-2.3055-4.0363-2.3055m7.3955 8.2271a.483.483 0 00.0138-.1183V.4678c0-.2708-.135-.5093-.498-.4617l-1.3386.191c-.3404.048-.5669.2066-.5669.477v11.2242c0 .048.0067.093.018.1347h.0004c.0645.2185.2896.3424.594.3424h1.157c.3481 0 .5643-.1275.6204-.3427M26.9283.0062l-1.3378.191c-.3404.048-.5669.2066-.5669.4767v11.2242c0 .0483.006.0933.018.135.0642.2185.289.3424.5947.3424h1.1558c.3487 0 .5652-.1275.6206-.3427a.5075.5075 0 00.0147-.1186V.4676c0-.2705-.1363-.509-.499-.4614" fill="#001130"/></g></svg>