<svg xmlns="http://www.w3.org/2000/svg" height="800" width="1200" viewBox="-4.600575 -2.585975 39.87165 15.51585"><defs><clipPath clipPathUnits="userSpaceOnUse" id="c"><path d="M71.575 597.109h86.948v33.185H71.575z"/></clipPath><clipPath clipPathUnits="userSpaceOnUse" id="b"><path d="M71.583 600.971h86.94v29.322h-86.94z"/></clipPath><clipPath clipPathUnits="userSpaceOnUse" id="a"><path d="M71.575 597.109h86.948v33.185H71.575z"/></clipPath></defs><g clip-path="url(#a)" transform="matrix(.35278 0 0 -.35278 -25.2529 222.3534)"><path d="M102.1098 606.0511v-3.27h-.622v.622h-.019c-.349-.481-1.027-.716-1.781-.716-1.545 0-2.657 1.112-2.657 3.496s1.112 3.496 2.657 3.496c1.15 0 2.036-.546 2.45-1.998l-.716-.141c-.339 1.084-.905 1.498-1.696 1.498-.999 0-1.942-.678-1.942-2.855s.943-2.855 1.942-2.855c1.112 0 1.63.678 1.63 1.507v.575h-1.536v.641zm1.1024 1.6304h.679v-.971h.018c.377.669.783 1.046 1.593 1.046v-.678c-.848-.019-1.291-.575-1.611-1.583v-2.714h-.679zm4.5234-.4899c-.811 0-1.329-.697-1.329-1.96s.518-1.96 1.329-1.96c.811 0 1.329.697 1.329 1.96s-.518 1.96-1.329 1.96m0-4.505c-1.338 0-2.007 1.131-2.007 2.545 0 1.413.669 2.544 2.007 2.544s2.007-1.131 2.007-2.544c0-1.414-.669-2.545-2.007-2.545m5.7673.0947v.66h-.019c-.386-.434-.895-.754-1.451-.754-.726 0-1.414.377-1.414 1.432v3.562h.679v-3.543c0-.65.311-.867.801-.867.509 0 1.093.415 1.404.744v3.666h.679v-4.9zm2.7142 1.1683c.368-.405.829-.678 1.234-.678.792 0 1.386.518 1.386 1.997 0 1.244-.537 1.923-1.386 1.923-.433 0-.753-.189-1.234-.66zm-.679-2.978v6.71h.679v-.575h.019c.254.368.801.669 1.272.669.867 0 2.007-.584 2.007-2.544 0-1.904-1.14-2.545-1.969-2.545-.462 0-.914.236-1.291.547l-.038.019v-2.281z" fill="#575756"/></g><g clip-path="url(#b)" transform="matrix(.35278 0 0 -.35278 -25.2529 222.3534)" fill="#575756"><path d="M78.7425 627.0682c.542.118.983.45 1.254.887.313-.208.688-.33 1.092-.33.554 0 1.045.228 1.403.596.359-.368.85-.596 1.403-.596.405 0 .779.122 1.092.33.272-.437.712-.769 1.254-.887.306-.067.61-.058.894.013l-.773-1.224c-1.193.497-2.497.764-3.87.764-1.372 0-2.677-.267-3.87-.764l-.773 1.224c.285-.071.589-.08.894-.013m.888 2.622c.375.082.746-.156.827-.531a.6953.6953 0 00-.532-.828c-.375-.082-.745.156-.827.532-.082.375.156.745.532.827m2.861.159c.385 0 .696-.311.696-.696 0-.383-.311-.695-.696-.695-.384 0-.695.312-.695.695 0 .385.311.696.695.696m2.034-.69c.082.375.452.613.828.531.375-.082.613-.452.531-.827a.6943.6943 0 00-.827-.532.696.696 0 00-.532.828m1.842-3.822a.082.082 0 00-.109-.042 9.4984 9.4984 0 01-3.767.774c-1.304 0-2.572-.261-3.766-.774a.082.082 0 00-.109.042c-.02.044.021.11.104.15l.047.02c1.172.487 2.426.734 3.724.734 1.299 0 2.552-.247 3.724-.734l.047-.02c.083-.04.124-.106.105-.15m-8.087.244a.4631.4631 0 01-.014-.394c.101-.235.373-.342.609-.241 1.11.476 2.332.743 3.616.743a9.155 9.155 0 003.617-.743c.235-.101.507.006.608.241.057.132.048.276-.013.394l1.497 2.358c.223.417-.12.731-.388.596-.268-.134-.517-.289-.517-.289-.32.169-.651.321-.989.458.006.024.007.04.012.064.134.614-.257 1.222-.871 1.356-.297.065-.602.009-.858-.155-.238-.153-.411-.378-.485-.65-.157.025-.327.045-.486.062-.043.221-.159.416-.321.578a1.134 1.134 0 01-.806.334c-.304 0-.59-.119-.805-.334-.163-.162-.278-.357-.321-.578-.16-.017-.329-.037-.486-.062-.075.272-.247.497-.485.65-.257.164-.561.22-.858.155-.614-.134-1.005-.742-.871-1.356.005-.024.005-.04.012-.064a10.825 10.825 0 01-.989-.458s-.249.155-.517.289c-.268.135-.611-.179-.388-.596z"/><path d="M92.451 616.1068a.2375.2375 0 000 .475.2375.2375 0 000-.475m-.525-.623c-.257 0-.481.202-.341.257.141.056.318.235.318.235.101-.09.526-.19.526-.19s-.246-.302-.503-.302m-.367 1.207c.087.186.479.067.412-.011-.068-.078-.123-.391-.123-.391s-.459.044-.289.402m-.577 4.047s-.018.134.027.144c.045.012.089-.094.089-.094.049-.116-.024-.379-.197-.561l-.037-.038c-.217-.226-.416-.495-.657-.727-.104-.1-.18-.006-.097.081.202.213.405.465.662.734l.037.038c.152.159.195.372.173.423m-.27-2.819c.122.172-.064.318-.228.125-.995-1.174-.268-2.459-.268-2.459s-.771.312-.771 1.407c0 1.096 1.319 2.449 1.776 2.93.459.48.571 1.419-.468 1.419-1.04 0-2.009-1.174-2.009-1.174-.209.245-.652-.245-.652-.245s-.045.201.123.882c.168.682.525.783.525.783s-.119-.422-.045-.66c.052-.165.189-.067.179.09-.056.894.683.76.683.76s-.358-.347-.213-.503c.145-.156.67.38 1.688.38.86 0 1.933-.38 1.933-1.509s-1.275-2.19-1.821-2.705c-.973-.917.149-2.148.149-2.148-.742 0-1.535 1.276-.581 2.627m.152-5.051s-.033-.379-.369-.379c-.335 0-.525.267-.525.267s-.135-.212 0-.413c.133-.201.408-.695.192-.811-.215-.117-.36.174-.505.822-.146.648-.291 1.442-.447 1.442-.156 0-.09-1.129.257-2.023.346-.894.558-1.409 1.297-2.068.737-.66 1.184-1.207 1.184-1.922 0-.716-.335-.839-.335-1.141 0-.301.089-.402-.067-.48-.157-.078-.235.022-.313.212-.079.19-.308.205-.406.035-.097-.169-.002-.343.216-.404.279-.078.178-.335.178-.335s-.547.38-.592.458c-.045.078.062 1.398.076 1.538.014.139.114.217.237.06.124-.156.76-.473.76.213 0 .637-1.249 1.524-1.341 1.598-.179.146-.179.392-.324.57-.145.179-.575.674-.634.801-.059.128-.26.082-.204-.063.055-.145 0-.235-.101-.112-.101.123-.296.255-.448.056-.151-.198-.349-.362-.392-.181-.043.181-.077.26-.11.338-.034.078.1.201.29.368.191.168.343.387.343.708 0 .321-.152.355-.152 1.059s.402 1.877 1.016 1.877c.616 0 .414-.95.414-1.408 0-.458.313-1.061.805-.682m-.191-7.577a6.511 6.511 0 00-5.69-3.327c-.533 0-1.052.06-1.547.184-.263.066-.151.136-.05.224.101.09.235.47.302.738.067.269.111.402.278.371.329-.064.668-.102 1.017-.102 1.97 0 3.655 1.128 4.532 2.747.153.282.265.137.388.036.122-.101.48-.458.659-.526.179-.067.179-.223.111-.345m-.29-2.237c-.201-.212-.536-.1-.536-.1s.033.38.235.525c.262.19.553-.159.301-.425m-1.039-1.028c-.235.302.38.369.38.369.19-.38-.145-.671-.38-.369m-6.421.707c-.139.032-.281.066-.431.066-.15 0-.292-.034-.431-.066-.148-.033-.255.139-.273.321-.018.183-.13.384-.245.627-.114.242-.184.413.011.484.292.107.61.151.938.151.328 0 .646-.044.938-.151.194-.071.125-.242.011-.484-.115-.243-.227-.444-.245-.627-.019-.182-.125-.354-.273-.321m-1.375-.585c-.495-.124-1.014-.184-1.547-.184a6.5127 6.5127 0 00-5.691 3.327c-.067.122-.067.278.112.345.178.068.536.425.659.526.123.101.235.246.387-.036.878-1.619 2.563-2.747 4.533-2.747.348 0 .688.038 1.018.102.165.031.21-.102.277-.371.067-.268.201-.648.301-.738.101-.088.213-.158-.049-.224m-5.908-.122c-.235-.302-.57-.011-.38.369 0 0 .615-.067.38-.369m-1.04 1.028c-.251.266.039.615.302.425.201-.145.235-.525.235-.525s-.335-.112-.537.1m-.838 2.616s-.101.257.179.335c.218.061.313.235.215.404-.097.17-.327.155-.405-.035-.078-.19-.156-.29-.313-.212-.157.078-.067.179-.067.48 0 .302-.335.425-.335 1.141 0 .715.447 1.262 1.184 1.922.738.659.951 1.174 1.297 2.068.347.894.414 2.023.257 2.023-.156 0-.301-.794-.447-1.442-.145-.648-.291-.939-.506-.822-.215.116.059.61.193.811.134.201 0 .413 0 .413s-.19-.267-.525-.267c-.336 0-.369.379-.369.379.492-.379.805.224.805.682 0 .458-.201 1.408.413 1.408.615 0 1.017-1.173 1.017-1.877s-.152-.738-.152-1.059c0-.321.152-.54.342-.708.19-.167.324-.29.291-.368-.034-.078-.067-.157-.111-.338-.043-.181-.241-.017-.392.181-.151.199-.346.067-.447-.056-.101-.123-.157-.033-.101.112.056.145-.145.191-.203.063-.06-.127-.49-.622-.635-.801-.145-.178-.145-.424-.324-.57-.092-.074-1.342-.961-1.342-1.598 0-.686.638-.369.76-.213.123.157.224.079.238-.06.013-.14.12-1.46.076-1.538-.045-.078-.593-.458-.593-.458m.413 14.645l.036-.038c.258-.269.461-.521.663-.734.083-.087.006-.181-.097-.081-.241.232-.44.501-.657.727l-.037.038c-.173.182-.247.445-.198.561 0 0 .045.106.09.094.044-.01.027-.144.027-.144-.022-.051.021-.264.173-.423m.097-2.396c.955-1.351.161-2.627-.581-2.627 0 0 1.122 1.231.15 2.148-.547.515-1.823 1.576-1.823 2.705s1.074 1.509 1.934 1.509c1.017 0 1.542-.536 1.688-.38.145.156-.213.503-.213.503s.738.134.683-.76c-.01-.157.126-.255.178-.09.075.238-.045.66-.045.66s.358-.101.526-.783c.168-.681.123-.882.123-.882s-.444.49-.652.245c0 0-.969 1.174-2.008 1.174-1.04 0-.928-.939-.47-1.419.458-.481 1.778-1.834 1.778-2.93 0-1.095-.772-1.407-.772-1.407s.726 1.285-.268 2.459c-.164.193-.35.047-.228-.125m-.792 6.627c.159.353.466.179.466.179s-.039.279.185.383c.224.104.446-.116.521-.073.075.043.02.375.209.46.299.134.254-.447.373-.387.119.059 0 .521.164.685.164.164.378.285.457.053.079-.232.031-.706.294-.706.262 0 .441.206.501.102.059-.104-.386-.223-.387-.44-.001-.216-.239-.126-.373-.141-.135-.015-.642-.09-.642-.716 0-.745.894-.705.894-.705l.374-.545.089-.821-.82.239s-.238.223-.551.953c-.313.731-.209 1.146-.209 1.408 0 .261-.185.237-.241.063-.057-.174-.027-.398-.116-.443-.09-.044-.196.311-.334.199-.427-.348 1.004-2.285 1.004-2.285-.402.149-1.205.787-1.205.787s-.703-.191-.643.36c.059.552.469.125.566.492.12.447-.736.546-.576.899m3.669-1.404c.109 0 .198-.088.198-.197 0-.109-.089-.197-.198-.197-.064 0-.12.03-.156.078-.066.043-.122-.103-.08-.241l.112-.302c.234-.628.24-1.079.207-1.322-.012-.09-.133-.061-.124.027.026.23.021.654-.202 1.251l-.112.301c-.069.211-.042.602.355.602m.186-3.566l.095.617a.3158.3158 0 00-.095-.617m10.314 0c-.175 0-.317.141-.317.316 0 .141.093.261.222.301zm-9.878 3.174c.54-.286 1.994-.057 2.456.197.461.253 1.431.33 1.431.33a.8364.8364 0 01.237-.465c.16-.159.372-.247.597-.247.225 0 .437.088.597.247.128.128.209.29.237.465 0 0 .969-.077 1.431-.33.462-.254 1.916-.483 2.456-.197l.449-.357c-.416-1.116-.163-1.757-.163-1.757a.7529.7529 0 01-.387-.207.7544.7544 0 01-.224-.537c0-.42.342-.76.761-.76 0 0 .521-1.118.521-3.07 0-3.19-1.353-6.02-1.429-6.17-.076-.15-.551-.137-.433.244.119.381.029.501-.404.396-.431-.105-1.966-.566-2.831-2.638-.087-.209-.357-.327-.581.447-.224-.774-.494-.656-.581-.447-.865 2.072-2.4 2.533-2.832 2.638-.432.105-.521-.015-.403-.396s-.357-.394-.434-.244c-.076.15-1.428 2.98-1.428 6.17 0 1.952.521 3.07.521 3.07a.7603.7603 0 01.538 1.297.7627.7627 0 01-.389.207s.254.641-.161 1.757zm.51.756c.254 0 .172-.434-.003-.434-.128 0-.232.034-.299.07l-.257.136s.306.228.559.228m.282.702c.187.088.401.226.43.135.03-.09-.088-.093-.079-.241.006-.094-.142-.216-.295-.297-.139-.073-.162.353-.056.403m1.073.458c.2.051.344.146.362.052.018-.093-.1-.081-.109-.229-.012-.182-.622-.367-.622-.367.075.204.169.493.369.544m1.039.293c.206.025.359.101.365.006.007-.095-.108-.068-.136-.214-.034-.179-.663-.286-.663-.286.1.193.229.468.434.494m-1.926-1.463s1.418.885 2.683.851c0 0-1.231-1.05-1.926-1.176-.245-.044-.526-.09-.785-.104 0 0 .049.242.028.429m2.994 1.623c.207 0 .369.056.363-.039-.005-.095-.116-.054-.162-.196-.055-.173-.693-.201-.693-.201.123.179.285.436.492.436m.749-1.31c.222 0 .4-.179.4-.4a.4001.4001 0 10-.8 0c0 .221.179.4.4.4m0 1.195c.033 0 .201-.142.201-.218 0-.036-.137-.011-.201-.011s-.201-.025-.201.011c0 .076.168.218.201.218m.749.115c.206 0 .369-.257.492-.436 0 0-.637.028-.693.201-.046.142-.156.101-.162.196-.006.095.156.039.363.039m1.068-.16c.205-.026.333-.301.433-.494 0 0-.629.107-.662.286-.028.146-.143.119-.137.214.006.095.16.019.366-.006m.677-.241c.018.094.161-.001.362-.052.2-.051.294-.34.369-.544 0 0-.611.185-.622.367-.009.148-.127.136-.109.229m1.277-1.651c-.26.014-.54.06-.785.104-.695.126-1.927 1.176-1.927 1.176 1.265.034 2.684-.851 2.684-.851-.021-.187.028-.429.028-.429m-.272 1.276c.029.091.243-.047.43-.135.106-.05.083-.476-.057-.403-.153.081-.3.203-.295.297.01.148-.108.151-.078.241m.711-.837c.253 0 .559-.228.559-.228l-.256-.136c-.068-.036-.171-.07-.299-.07-.175 0-.257.434-.004.434m.407-14.639c-.101.134-.179.279.044.368.107.043.123-.1.123-.323 0-.224.1-.302.212-.369.112-.068.09-.157-.09-.235-.178-.079-.245-.045-.234.123.011.167.045.302-.055.436m-2.527-1.095a.19.19 0 10-.38 0c0 .104.086.189.19.189.105 0 .19-.085.19-.189m1.33 1.352s-.223-.313-.335-.414c0 0-.145.034-.313.079-.168.044-.414 0-.414 0 .392.435 1.062.335 1.062.335m.515-.201c.212 0 .379-.201.379-.201s-.581-.291-.716-.211c-.135.081-.155.099-.155.099s.279.313.492.313m-1.51.324c-.592-.257-.77-.384-.77-.384.602.753 1.285 1.066 1.701 1.194-.009-.221.08-.421.245-.55 0 0-.583-.003-1.176-.26m-5.868-.637s-.02-.018-.155-.099c-.136-.08-.716.211-.716.211s.167.201.38.201c.212 0 .491-.313.491-.313m1.084.179s-.245.044-.413 0c-.168-.045-.313-.079-.313-.079-.112.101-.335.414-.335.414s.67.1 1.061-.335m.648-1.017c0-.105-.085-.19-.189-.19a.19.19 0 00-.19.19.1895.1895 0 00.379 0m-.715 1.475c-.592.257-1.176.26-1.176.26.166.129.255.329.246.55.415-.128 1.099-.441 1.7-1.194 0 0-.177.127-.77.384m-2.246-.816c.011-.168-.057-.202-.235-.123-.179.078-.201.167-.089.235.111.067.212.145.212.369 0 .223.016.366.123.323.223-.089.145-.234.044-.368-.1-.134-.066-.269-.055-.436m-1.386 11.3c.148.143.301-.055.243-.158-.058-.102-.232-.278-.266-.501 0 0-.246.402.023.659m.27-8.092c-.081.112-.227.191-.163.417.032-.016.016.048.064.033.017-.162.098-.306.099-.45m-.334 4.423c0 2.027.541 3.208.563 3.258.035.094.171.058.115-.054-.023-.048-.551-1.205-.551-3.204 0-2.891 1.041-5.454 1.378-6.132.032-.065-.093-.105-.112-.059-.295.699-1.393 3.285-1.393 6.191m.295-6.178c-.204.245.277.665.45.48.202-.212-.246-.726-.45-.48m-1.201-2.001c0 .091.038.175.098.235l.364-.541a.3327.3327 0 00-.462.306m-.327-.391c.157-.302.526-.492.827-.314.302.179.398.326.492.235.094-.089.186-.168.246-.402.061-.233.138-.371-.034-.491-.227-.161-.488.279-.488.279-.149-.149-.328-.559-.328-.559-.09.15-.281.635-.362.74 0 0-.286-.114-.42-.271-.134-.156-.264-.249-.266-.141-.005.257-.033.62-.084 1.141-.025.26-.179.462-.402.527-.074.021-.308.066-.531-.134.101.182.365.523 1.058 1.047.027.02.044.033.058.044.133.109.278.169.29.031.012-.137.044-.614.112-.704.067-.089.033-.134-.101-.234-.134-.101-.224-.492-.067-.794m1.237-1.513c.179-.104.395-.044.537-.052.141-.007.231-.022.231-.156v-.545c0-.096-.105-.067-.187.068-.082.134-.052.313-.052.313-.335.029-.529.372-.529.372m7.208-1.397c-.323.12-.69.178-1.09.178-.4 0-.767-.058-1.09-.178-.319-.119-.589-.266-.52-.376.112-.179.052-.29.052-.29-.32-.061-.634-.093-.933-.093-1.03 0-2.015.348-2.819.962 0 0 .693.158.693 1.421 0 .637-.055.972-.055.972 1.71 0 2.139.594 2.139.594 0-.17.065-.329.185-.449a.6309.6309 0 01.448-.185c.349 0 .633.284.633.634 0 0 .16-.146.208-.325.056-.206-.074-.224-.253-.357-.372-.279.208-.978.626-.671.224.163.686.506.686.506s.462-.343.685-.506c.418-.307.999.392.626.671-.179.133-.309.151-.253.357.049.179.209.325.209.325 0-.35.284-.634.633-.634.169 0 .328.066.448.185.119.12.185.279.185.449 0 0 .429-.594 2.139-.594 0 0-.055-.335-.055-.972 0-1.263.692-1.421.692-1.421-.803-.614-1.788-.962-2.818-.962-.3 0-.613.032-.933.093 0 0-.06.111.051.29.07.11-.201.257-.519.376m4.737 5.302c-.205-.246-.652.268-.451.48.175.185.655-.235.451-.48m-.291-4.59c-.082-.135-.186-.164-.186-.068v.545c0 .134.089.149.231.156.142.008.358-.052.537.052 0 0-.194-.343-.53-.372 0 0 .03-.179-.052-.313m1.03 2.283l.364.541c.06-.06.097-.144.097-.235 0-.183-.148-.332-.332-.332-.045 0-.089.01-.129.026m.789-.085c.156.302.067.693-.067.794-.135.1-.168.145-.101.234.067.09.1.567.112.704.011.138.156.078.291-.031a.6288.6288 0 01.057-.044c.693-.524.957-.865 1.058-1.047-.224.2-.458.155-.531.134-.223-.065-.377-.267-.402-.527-.051-.521-.079-.884-.084-1.141-.002-.108-.132-.015-.266.141-.134.157-.42.271-.42.271-.082-.105-.273-.59-.363-.74 0 0-.179.41-.327.559 0 0-.261-.44-.489-.279-.171.12-.093.258-.033.491.061.234.152.313.246.402.094.091.19-.056.492-.235.301-.178.67.012.827.314m-1.567 4.147c.001.144.082.288.099.45.048.015.032-.049.064-.033.063-.226-.082-.305-.163-.417m.27 8.092c.268-.257.022-.659.022-.659-.033.223-.208.399-.265.501-.059.103.095.301.243.158m.064-3.669c0-2.906-1.098-5.492-1.393-6.191-.019-.046-.145-.006-.112.059.336.678 1.378 3.241 1.378 6.132 0 1.999-.528 3.156-.552 3.204-.055.112.081.148.115.054.023-.05.564-1.231.564-3.258m-.779 7.08c.396 0 .425-.391.354-.602l-.112-.301c-.222-.597-.227-1.021-.201-1.251.009-.088-.113-.117-.124-.027-.033.243-.027.694.207 1.322l.112.302c.043.138-.015.284-.079.241a.1965.1965 0 00-.157-.078.197.197 0 100 .394m.499 2.1c.06.104.238-.102.501-.102s.215.474.294.706c.079.232.293.111.457-.053.164-.164.045-.626.164-.685.119-.06.074.521.372.387.19-.085.134-.417.21-.46.074-.043.297.177.521.073.224-.104.185-.383.185-.383s.307.174.466-.179c.159-.353-.696-.452-.577-.899.098-.367.507.06.566-.492.06-.551-.643-.36-.643-.36s-.802-.638-1.205-.787c0 0 1.432 1.937 1.005 2.285-.138.112-.244-.243-.334-.199-.089.045-.06.269-.116.443-.057.174-.241.198-.241-.063 0-.262.104-.677-.209-1.408-.313-.73-.551-.953-.551-.953l-.821-.239.091.821.372.545s.894-.04.894.705c0 .626-.507.701-.641.716-.134.015-.372-.075-.373.141-.001.217-.446.336-.387.44m-15.198-8.953s-.056.313-.123.391c-.067.078.324.197.413.011.169-.358-.29-.402-.29-.402m-.078-.805c-.257 0-.503.302-.503.302s.424.1.525.19c0 0 .178-.179.318-.235.141-.055-.083-.257-.34-.257m-.763.861c0 .13.107.237.238.237a.2375.2375 0 10-.238-.237m19.899.916c-.731 0-.909-.678-.888-.887.021-.21.009-.312-.044-.177-.192.494.02.764.185.92l.164.152c.672.619 1.798 1.656 1.798 2.876 0 1.744-1.897 2.279-1.897 2.279.054.026.127.045.176.087.11.095.288.309.247.692-.033.306-.157.515-.367.624.201.147.544.449.34.901-.128.285-.327.4-.471.448a1.606 1.606 0 01-.055.016.7477.7477 0 01-.342.318.7415.7415 0 01-.411.064c-.059.125-.157.25-.325.326a.6364.6364 0 01-.293.057.6541.6541 0 01-.111.15c-.317.317-.587.336-.757.296-.202-.046-.213-.043-.213-.043s-.76.38-1.542-.358c-.783-.737-.608-1.589-.608-1.589-1.275.692-2.736 1.086-4.288 1.086s-3.013-.394-4.288-1.086c0 0 .175.852-.608 1.589-.782.738-1.543.358-1.543.358s-.01-.003-.213.043c-.17.04-.439.021-.756-.296a.6898.6898 0 01-.112-.15c-.096.005-.196-.014-.293-.057-.168-.076-.265-.201-.324-.326a.7448.7448 0 01-.412-.064.75.75 0 01-.341-.318c-.018-.005-.037-.01-.055-.016-.144-.048-.343-.163-.471-.448-.204-.452.139-.754.34-.901-.211-.109-.334-.318-.367-.624-.041-.383.137-.597.247-.692.049-.042.121-.061.176-.087 0 0-1.897-.535-1.897-2.279 0-1.22 1.125-2.257 1.797-2.876l.164-.152c.166-.156.378-.426.186-.92-.053-.135-.065-.033-.044.177.021.209-.157.887-.888.887-1.431 0-1.088-2.347.715-2.347.671 0 1.219.234 1.219.234-.322-.345-.286-.894-.256-1.336.007-.099.013-.193.013-.262 0-.141.019-.302-.086-.333l-.004.002c-.305-.049-.316.488-.316.488-.268-.112-.436-.548-.397-.878.031-.356.277-.715.69-.775 0 0-.61-.374-.446-.956.164-.581.24-.836.24-.836-.071-.073-.15-.148-.237-.227-.8-.714-1.333-1.372-1.333-2.252 0-.552.168-.846.279-1.04.021-.037.049-.087.056-.107 0-.066-.007-.121-.013-.174-.016-.138-.06-.504.325-.697l.229-.003c-.07-.299-.019-.863.081-1.008.101-.146.485.131.485.131.158-.263.333-.514.523-.752l-.321-.391c-.251-.285-.232-.703.042-.992.156-.165.35-.241.54-.263-.151-.407.01-.769.267-.931.297-.187.669-.106.905.198l.486.721a6.9866 6.9866 0 013.525-.955c1.608 0 2.405.347 2.405.347.041.103-.242.435-.242.435.117.027.23.053.328.053.097 0 .21-.026.328-.053 0 0-.283-.332-.243-.435 0 0 .798-.347 2.406-.347 1.261 0 2.474.341 3.525.955l.485-.721c.237-.304.609-.385.906-.198.257.162.417.524.267.931.19.022.384.098.539.263.275.289.293.707.043.992l-.321.391c.19.238.365.489.523.752 0 0 .383-.277.484-.131.1.145.152.709.082 1.008l.228.003c.386.193.342.559.326.697-.007.053-.013.108-.013.174.007.02.035.07.056.107.111.194.278.488.278 1.04 0 .88-.532 1.538-1.332 2.252-.087.079-.165.154-.238.227 0 0 .077.255.241.836.163.582-.446.956-.446.956.413.06.658.419.69.775.039.33-.129.766-.397.878 0 0-.011-.537-.316-.488l-.004-.002c-.105.031-.086.192-.086.333 0 .069.006.163.012.262.031.442.068.991-.256 1.336 0 0 .549-.234 1.22-.234 1.803 0 2.146 2.347.715 2.347"/></g><g clip-path="url(#c)" transform="matrix(.35278 0 0 -.35278 -25.2529 222.3534)"><path d="M75.2596 605.1768c.013.064-.003.14-.021.198l-.026.096c-.019.07-.04.157.048.211.079.049.162.003.198-.056.105-.169-.072-.268-.038-.324.016-.026.045-.025.074-.007.031.019.081.05.105.075.014.015.017.032.018.05a.5273.5273 0 01-.079.267c-.045.073-.11.139-.197.166-.088.027-.195.015-.282-.039a.2916.2916 0 01-.138-.211c-.007-.066.015-.15.037-.21.014-.042.037-.114.038-.159.002-.045-.02-.084-.062-.111-.097-.06-.196 0-.24.071a.259.259 0 00-.039.159c.006.051.027.085.052.13.017.031.026.058.009.086-.018.03-.064.03-.098.01-.073-.046-.094-.158-.091-.228.005-.081.035-.158.077-.226.051-.084.124-.148.225-.179.094-.028.203-.014.295.044.071.044.119.112.135.187m.8633-.5314c.031.027.043.021.075.01.018-.007.036-.012.055.006.035.03.009.062-.011.085l-.07.08c-.02.023-.048.053-.082.023-.02-.017-.018-.034-.014-.053.006-.034.011-.046-.02-.073l-.336-.29c-.058-.051-.134-.118-.207-.139-.078-.022-.158.013-.202.063-.049.057-.07.135-.028.219.034.07.102.131.16.181l.313.271c.048.035.051.045.098.026.017-.009.033-.01.052.006.032.028.012.06-.007.081l-.153.178c-.018.02-.047.038-.076.013-.02-.017-.017-.033-.016-.052l.003-.016c.006-.03-.023-.049-.045-.068l-.314-.272c-.098-.085-.195-.183-.212-.31-.013-.108.046-.219.103-.285.069-.079.175-.153.297-.141.119.011.227.102.318.181zm.2395-.492c-.04.06-.086.136-.019.214.059.072.152.053.205.009.153-.129.014-.278.065-.32.023-.02.049-.011.072.015.023.028.061.073.076.104.009.019.007.036.002.053a.5315.5315 0 01-.158.23c-.065.055-.147.098-.238.096-.092 0-.191-.044-.256-.122a.2901.2901 0 01-.066-.244c.013-.065.06-.139.099-.189.027-.035.071-.096.086-.139.016-.041.007-.086-.025-.125-.074-.087-.186-.06-.251-.006a.2608.2608 0 00-.085.14c-.011.05-.001.088.009.14.006.034.008.063-.018.084-.027.023-.071.009-.096-.022-.056-.065-.041-.178-.017-.244.03-.076.083-.14.143-.191.075-.064.165-.103.27-.1.099.001.197.049.267.132.054.063.078.143.071.219-.008.064-.046.132-.081.182zm.7245-1.0562c-.083-.03-.172-.026-.237.013-.078.048-.127.129-.12.235.007.09.049.201.098.281.054.089.123.167.211.216.087.046.177.051.251.007.038-.023.07-.065.085-.116.016-.051.01-.089.001-.143-.005-.031-.015-.077.013-.094.026-.016.055-.009.073.021.016.027.064.114.072.14.006.022-.001.043-.01.062-.035.094-.111.178-.192.227-.226.137-.556.052-.722-.222-.164-.271-.084-.565.137-.699.071-.043.16-.068.247-.063.055.004.162.024.198.083.014.024.009.053-.01.065-.026.016-.067-.004-.095-.013m.4463-.3343c-.018.025 0 .053.012.081l.284.622c.012.028.022.06.052.063l.016.003c.019.003.035.005.046.029.016.035-.01.058-.035.069l-.21.096c-.024.011-.058.015-.074-.02-.011-.024-.002-.037.007-.054l.009-.014c.018-.025 0-.053-.012-.08l-.284-.622c-.012-.028-.021-.06-.052-.063l-.016-.002c-.019-.004-.035-.006-.046-.03-.015-.035.01-.058.034-.069l.211-.095c.024-.012.058-.016.074.019.011.024.003.037-.008.054zm.8843.3707c-.053-.161-.217-.171-.334-.153l.104.317c.009.029.018.06.043.075.024.014.057.007.081-.001.096-.032.144-.121.106-.238m.181.196c-.055.064-.13.095-.204.12l-.357.117c-.026.009-.06.009-.072-.028-.008-.024.002-.036.013-.052l.01-.013c.021-.023.006-.052-.003-.081l-.213-.65c-.009-.029-.015-.061-.045-.068l-.016-.004c-.018-.005-.033-.009-.042-.034-.012-.037.016-.057.042-.065l.216-.071c.026-.008.077-.029.092.017.009.026.003.038-.014.054-.016.014-.031.025-.032.052a.289.289 0 00.008.047l.067.206c.106-.029.224-.053.336-.028.109.022.219.09.261.219.033.1.012.194-.047.262m.7411-.0936l-.56.098c-.026.004-.06 0-.066-.038-.005-.025.006-.036.02-.051l.012-.01c.024-.02.013-.051.008-.081l-.118-.674c-.005-.029-.006-.063-.035-.074l-.014-.006c-.018-.009-.032-.015-.036-.04-.008-.038.023-.054.049-.058l.586-.102c.054-.009.065-.006.09.05.018.034.043.086.049.125a.0454.0454 0 01-.034.053c-.032.006-.067-.032-.09-.053-.063-.058-.111-.055-.182-.042-.163.031-.176.043-.151.188l.043.244.18-.032c.082-.014.064-.061.105-.069.047-.008.056.073.062.111.006.035.017.098-.025.105-.041.007-.036-.047-.121-.032l-.181.031.045.262c.003.019.018.032.038.037.023.006.076-.002.101-.005.036-.007.088-.019.118-.033.032-.016.048-.036.065-.071.012-.025.022-.047.048-.052.031-.005.048.021.054.054.005.029.014.112.003.137-.011.022-.044.025-.063.028m.3974-.5318l.006.276c.001.03.002.073.021.094.018.022.065.027.091.026.095-.001.174-.054.172-.179-.004-.167-.175-.216-.29-.217m.554-.474c-.034.024-.041.045-.056.088-.039.127-.084.251-.161.353.098.051.188.139.191.273.001.091-.042.172-.109.213-.059.037-.136.042-.201.043l-.433.008c-.027.001-.06-.009-.06-.048-.001-.025.012-.034.028-.045l.013-.01c.026-.016.021-.049.02-.079l-.015-.682c-.001-.03.004-.063-.023-.078l-.015-.008c-.015-.012-.029-.02-.029-.045-.001-.039.032-.05.058-.05l.233-.005c.026-.001.059.009.06.047.001.026-.012.035-.028.046l-.013.009c-.027.017-.021.049-.02.079l.005.255.121.02c.046-.064.144-.263.142-.336-.001-.04-.053-.035-.054-.078-.001-.049.043-.048.072-.049l.239-.005c.022 0 .063.002.064.04 0 .026-.013.032-.029.044m.8322.2582c-.031-.004-.054-.05-.07-.078-.043-.074-.09-.084-.162-.093-.165-.019-.181-.011-.199.135l-.031.246.182.022c.082.012.079-.04.12-.035.048.006.032.086.027.125-.004.036-.012.098-.055.092-.041-.005-.021-.055-.106-.067l-.182-.023-.033.264c-.003.019.007.036.024.046.021.014.073.022.099.025.036.004.089.009.122.004.034-.006.056-.021.083-.049.019-.02.035-.038.061-.035.031.003.04.033.035.067-.003.029-.018.111-.037.132-.017.017-.049.011-.069.008l-.563-.071c-.026-.004-.058-.017-.053-.056.003-.025.018-.032.035-.042l.014-.006c.029-.013.028-.046.032-.076l.086-.678c.004-.03.013-.062-.012-.081l-.012-.01c-.014-.013-.027-.024-.023-.049.005-.038.039-.044.065-.041l.59.075c.054.006.063.013.071.075.007.037.015.094.01.133-.003.027-.028.044-.049.041m4.1937.7024c-.017.014-.061.011-.08.011l-.528-.002c-.027 0-.06-.01-.06-.049 0-.025.014-.034.03-.046l.013-.008c.027-.015.023-.049.023-.079l.002-.684c0-.03.005-.062-.022-.078l-.013-.009c-.016-.011-.029-.02-.029-.046 0-.038.033-.048.06-.048h.231c.026 0 .059.011.059.049 0 .026-.013.035-.029.046l-.014.009c-.027.015-.022.048-.022.079l-.001.297h.177c.083.001.074-.049.115-.049.049 0 .042.082.042.12 0 .036 0 .098-.043.098-.041 0-.027-.052-.114-.052l-.177-.001-.001.241c0 .029-.003.069.017.089.02.021.082.021.106.021.092 0 .144-.003.207-.087.015-.018.03-.038.054-.038.039 0 .033.05.032.08-.005.039-.005.113-.035.136m.9186-.8179l-.014.006c-.029.011-.031.044-.036.073l-.122.674c-.005.029-.016.061.008.081l.012.01c.013.014.025.025.02.05-.007.039-.041.043-.068.038l-.227-.041c-.026-.005-.056-.021-.049-.059.004-.025.019-.031.036-.039l.015-.007c.029-.01.03-.043.035-.073l.122-.673c.005-.029.016-.061-.007-.082l-.012-.01c-.014-.014-.025-.025-.02-.049.006-.04.04-.044.067-.039l.227.042c.026.004.057.02.05.058-.005.025-.019.031-.037.04m1.0767 1.1543a.2339.2339 0 00-.01.047c-.002.026.013.039.028.053.016.018.021.03.011.055-.017.046-.067.022-.093.012l-.098-.038c-.026-.01-.079-.026-.061-.071.009-.025.023-.031.045-.033.021-.001.04 0 .057-.021.008-.01.017-.026.024-.041l.172-.442-.251.193c-.097.074-.233.182-.334.24-.042.026-.048.021-.09.005l-.155-.06c-.03-.012-.065-.026-.047-.07.012-.033.036-.031.061-.031.062.002.073-.05.097-.108l.228-.591a.179.179 0 00.011-.046c.001-.027-.014-.039-.029-.054-.016-.017-.021-.03-.011-.055.017-.045.067-.022.093-.012l.099.039c.026.01.078.025.061.071-.01.026-.023.031-.045.033-.022 0-.041 0-.058.021a.2471.2471 0 00-.024.041l-.216.558.577-.437c.031-.025.107-.09.136-.106.026-.015.042-.009.067.001.069.027.064.049.036.122zm1.1133-.2483h-.015c-.032-.001-.045.03-.061.055l-.363.58c-.016.025-.038.05-.024.078l.008.014c.006.018.013.033 0 .054-.021.033-.054.024-.077.01l-.196-.123c-.022-.014-.045-.04-.024-.072.014-.023.03-.023.049-.024h.015c.032.001.045-.03.061-.055l.363-.579c.016-.026.038-.051.024-.079l-.007-.014c-.007-.018-.014-.032-.001-.054.021-.033.054-.024.077-.01l.196.123c.022.014.045.04.024.073-.014.021-.03.021-.049.023m.4073.8809l-.188.203c-.02.022-.05.053-.051.081-.002.029.028.065.046.082.07.066.164.082.249-.009.114-.122.026-.277-.056-.357m.728.047c-.042-.008-.061.003-.103.024-.116.063-.235.121-.36.14.034.105.037.231-.055.329-.061.066-.149.094-.226.077-.068-.015-.126-.064-.174-.11l-.316-.296c-.019-.018-.037-.047-.01-.076.017-.018.033-.016.052-.014l.016.003c.03.007.049-.02.069-.042l.466-.5c.02-.022.047-.043.038-.072l-.005-.016c-.003-.019-.007-.034.011-.054.025-.027.057-.013.075.006l.171.158c.019.018.036.048.01.077-.017.019-.033.016-.052.014l-.016-.003c-.03-.007-.049.02-.07.042l-.173.187.073.098c.077-.014.287-.089.336-.142.027-.029-.014-.062.015-.093.033-.036.065-.005.086.015l.174.163c.017.016.045.045.019.073-.018.019-.032.014-.051.012m.7174 1.146c-.023.015-.052.009-.064-.009-.018-.026.002-.074.013-.104.026-.081.002-.123-.038-.183-.095-.136-.111-.143-.233-.06l-.205.139.104.152c.046.068.082.032.105.066.027.041-.043.081-.076.103-.029.02-.081.055-.105.02-.023-.034.029-.053-.02-.124l-.103-.152-.221.149c-.016.011-.021.03-.018.049.004.024.033.069.047.09.02.03.053.073.078.094.027.023.053.03.091.031.028 0 .052 0 .067.022.018.026.001.052-.026.071-.025.017-.096.06-.124.059-.025 0-.041-.03-.052-.046l-.319-.469c-.015-.023-.025-.055.007-.077.021-.015.036-.008.054-.002l.015.007c.028.013.052-.01.077-.026l.566-.384c.025-.017.055-.031.053-.062v-.016c0-.02 0-.036.021-.05.032-.022.059-.001.074.022l.334.492c.03.045.031.056-.01.103-.023.029-.06.074-.092.095m-7.6982-2.0633c-.033-.005-.056-.054-.072-.085-.044-.078-.094-.09-.171-.101-.173-.025-.19-.017-.213.138l-.039.26.193.029c.087.013.084-.042.127-.035.052.008.033.093.026.133-.005.038-.015.104-.06.097-.043-.006-.021-.06-.112-.073l-.193-.029-.041.279c-.003.02.007.038.025.05.021.014.077.024.104.028.038.006.095.011.13.007.037-.005.06-.02.089-.05.021-.021.038-.04.066-.036.033.005.041.037.036.072-.004.031-.023.118-.043.139-.019.019-.052.011-.073.008l-.596-.089c-.029-.005-.061-.02-.056-.061.005-.027.02-.034.039-.043l.015-.007c.03-.013.03-.047.035-.079l.107-.719c.005-.031.016-.065-.01-.086l-.013-.011c-.015-.014-.027-.026-.023-.053.006-.04.042-.046.07-.042l.625.094c.058.009.067.015.074.081.005.04.014.101.008.141-.005.029-.031.047-.054.043" fill="#575756"/><path d="M83.3596 603.9873l-.647.135c-.016.003-.045.011-.059.003-.023-.014-.048-.088-.057-.114-.005-.015-.013-.03-.016-.046-.007-.035.006-.06.036-.067.058-.012.087.111.231.081.054-.012.044-.037.034-.091l-.148-.709c-.007-.032-.008-.067-.04-.078l-.016-.006c-.019-.009-.034-.014-.04-.041-.009-.04.024-.058.051-.064l.241-.05c.028-.005.064-.002.072.038.006.027-.006.039-.02.054l-.012.012c-.025.022-.012.055-.006.086l.148.71c.011.054.013.081.067.07.144-.03.121-.154.179-.166.031-.006.053.012.06.046.003.017.003.034.004.049.001.028.008.106-.007.128-.009.012-.04.017-.055.02" fill="#575756"/><path d="M81.276 614.3268c0-1.653 0-2.009.955-2.009 1.453 0 2.351.57 2.351 2.095 0 1.952-1.426 2.165-3.064 2.165h-.242zm0 2.764h.385c1.253 0 2.536.399 2.536 1.91 0 1.282-.869 1.467-2.038 1.467-.27 0-.57-.028-.883-.057zm-1.283 1.938c0 .641 0 1.382-.313 1.867 1.254 0 2.536.142 3.79.142 1.112 0 2.123-.484 2.123-1.724s-.983-1.838-1.995-2.266v-.028c1.326-.299 2.465-.826 2.465-2.365 0-2.251-1.709-2.907-3.647-2.907-.969 0-1.924.057-2.893.057.47 1.012.47 2.479.47 3.577zm19.9923-3.6233c0-2.472 0-3.005 1.428-3.005 2.173 0 3.516.853 3.516 3.133 0 2.919-2.131 3.239-4.582 3.239h-.362zm0 4.134h.575c1.876 0 3.793.597 3.793 2.856 0 1.917-1.299 2.195-3.047 2.195-.405 0-.852-.043-1.321-.086zm-1.918 2.898c0 .959 0 2.067-.469 2.792 1.875 0 3.793.213 5.669.213 1.662 0 3.175-.725 3.175-2.579s-1.471-2.749-2.984-3.388v-.043c1.982-.447 3.687-1.236 3.687-3.537 0-3.367-2.557-4.347-5.455-4.347-1.449 0-2.877.085-4.326.085.703 1.513.703 3.708.703 5.349zm14.1231-4.0275c1.044 0 1.599 0 1.599.81 0 .788-.576 1.619-1.62 1.619-1.343 0-1.919-1.299-2.174-2.429zm-2.323-.639c-.043-.405-.085-.746-.085-1.194 0-1.981.895-3.878 3.111-3.878 1.045 0 2.068.426 2.58 1.001v-.234c0-1.129-1.791-2.174-3.368-2.174-2.792 0-4.113 2.515-4.113 5.094 0 2.77 1.534 5.093 4.454 5.093 2.046 0 3.261-1.343 3.261-2.728 0-.98-.703-.98-2.025-.98zm7.3329-.0428c0 1.513 0 2.983-.554 3.431.789.021 1.534.106 1.79.106.384 0 .149-1.065.384-1.065.106 0 .809 1.279 2.067 1.279.746 0 1.172-.299 1.172-.81 0-.405-.213-.704-.746-.704-.405 0-.831.064-1.343.064-1.065 0-1.193-.745-1.193-1.683v-4.39c0-.788 0-1.705.383-2.323h-2.344c.384.618.384 1.535.384 2.323zm17.4515.6818c1.044 0 1.598 0 1.598.81 0 .788-.575 1.619-1.619 1.619-1.343 0-1.918-1.299-2.174-2.429zm-2.323-.639c-.043-.405-.085-.746-.085-1.194 0-1.981.895-3.878 3.111-3.878 1.044 0 2.067.426 2.579 1.001v-.234c0-1.129-1.79-2.174-3.367-2.174-2.792 0-4.113 2.515-4.113 5.094 0 2.77 1.534 5.093 4.454 5.093 2.045 0 3.26-1.343 3.26-2.728 0-.98-.703-.98-2.024-.98zm6.8526-6.1376c.384.597.384 1.513.384 2.302v10.143c0 .874 0 1.705-.555 2.131l2.132.341v-12.615c0-.789 0-1.705.383-2.302zm7.4748 6.7766c1.044 0 1.598 0 1.598.81 0 .788-.575 1.619-1.619 1.619-1.343 0-1.918-1.299-2.174-2.429zm-2.408-1.833c0-1.981.895-3.878 3.111-3.878 1.044 0 2.067.426 2.579 1.001v-.234c0-1.129-1.791-2.174-3.367-2.174-2.792 0-4.113 2.515-4.113 5.094 0 2.77 1.534 5.093 4.454 5.093 2.045 0 3.26-1.343 3.26-2.728 0-.98-.703-.98-2.025-.98h-3.814" fill="#cc0e25"/><path d="M158.5233 621.1379c-.384-.682-.575-1.129-.874-1.875l-3.004-7.693c-.576-1.449-2.387-6.024-5.763-6.024-1.859 0-3.678 1.12-3.506 2.405 5.164-3.21 9.388.613 7.578 5.989l-.76 2.574c-.32 1.086-1.108 3.729-1.833 4.624.426.043 1.321.128 1.577.128.362 0 .469-.192.597-.618l1.833-6.244c.106-.341.149-.639.298-.639.128 0 .213.341.32.639l1.086 3.388c.192.576.618 1.961.618 2.579 0 .383-.106.554-.234.767zm-35.401-6.135c0 1.068-.021 2.413-.021 4.014 0 1.538.021 2.819.021 3.865 0 1.943-.086 3.075-.662 3.459l2.178.321v-9.353c1.986 1.388 2.947 2.669 2.947 3.331 0 .214-.043.406-.171.598h2.156l-2.754-2.947c-.214-.213-.47-.469-.811-.747 2.626-3.352 3.779-5.552 4.526-5.851h-2.22l-3.139 4.741c-.171.277-.342.427-.47.427-.021 0-.043-.022-.064-.022v-2.434c0-1.516.043-2.413.448-2.712h-2.434c.406.257.47 1.367.47 3.31" fill="#cc0e25"/></g></svg>