<svg xmlns="http://www.w3.org/2000/svg" height="800" width="1200" viewBox="-2.38125 -5.820825 20.6375 34.92495"><path fill="#017163" d="M0 0h15.875v23.2833H0z"/><path d="M11.2977 19.1823h-.3704v2.0108h.4498v-1.4023c.1323-.1058.3175-.238.5291-.238.1853 0 .291.1322.291.4232v1.1907h.4763v-1.3494c0-.5292-.344-.7144-.6085-.7144-.2381 0-.4498.0794-.688.2646zm-3.7835 0H6.985l-.4233.6085-.4234-.6085h-.5291l.6879 1.0054-.7144 1.0054h.5292l.4498-.635.4498.635h.5291l-.7144-1.0054zm-4.6567 2.0108v-1.217h.7408l.1588-.4234h-.8996v-.7408h1.0054l.1323-.3969h-1.614v2.7781z" fill="#fff"/><path d="M7.6994 19.5527v.9525c0 .5292.344.7144.6085.7144.1058 0 .2381-.0265.344-.053l.1587-.4762c-.1058.053-.2381.1323-.3704.1323-.1852 0-.291-.1323-.291-.4233v-.8202h.4498l.1322-.3704h-.582v-.5292l-.4763.2381v.291l-.2646.3705h.291zm6.5087-.3175c-.1852-.0794-.3704-.1058-.582-.1058-.4499 0-.7409.2381-.7409.582 0 .397.3175.5292.5556.635.1852.0795.344.1324.344.2911 0 .1323-.1323.2117-.344.2117-.1852 0-.3704-.0794-.4762-.1323l-.1323.3704c.1852.0794.3969.1323.6085.1323.5027 0 .7938-.2381.7938-.635 0-.3969-.3175-.5292-.5821-.635-.1852-.0794-.344-.1323-.344-.2646 0-.1587.1588-.1852.291-.1852.1853 0 .3705.0529.5557.1323v-.3969z" fill="#fff"/><path d="M9.7631 19.1294c-.6085 0-.979.4762-.979 1.0583 0 .6086.344 1.0319.979 1.0319.6086 0 .979-.4498.979-1.0583 0-.5557-.3704-1.032-.979-1.032zm0 1.7198c-.3704 0-.5027-.344-.5027-.6615s.1058-.6614.5027-.6614c.3704 0 .5027.344.5027.6614 0 .3175-.1323.6615-.5027.6615zm-5.0006-1.7198c-.6085 0-.979.4762-.979 1.0583 0 .6086.344 1.0319.979 1.0319.6085 0 .979-.4498.979-1.0583 0-.5557-.3705-1.032-.979-1.032zm0 1.7198c-.3704 0-.5027-.344-.5027-.6615s.1058-.6614.5027-.6614c.3704 0 .5027.344.5027.6614 0 .3175-.1323.6615-.5027.6615z" fill="#fff"/><path fill="#fff000" d="M8.7842 11.774l.6085-1.5082H7.5142V8.89h1.852l.7144-1.4023h-4.154v7.329h1.5876V11.774z"/><path d="M7.8846 5.1065c-3.2544 0-5.8738 2.6193-5.8738 5.8737 0 3.2544 2.6459 5.8738 5.8738 5.8738 3.2544 0 5.8737-2.6194 5.8737-5.8738S11.139 5.1065 7.8846 5.1065zm0 11.086c-2.884 0-5.2388-2.3283-5.2388-5.2123S4.9742 5.768 7.8581 5.768c2.884 0 5.2123 2.3284 5.2123 5.2123.0265 2.884-2.3019 5.2123-5.1858 5.2123z" fill="#fff000"/></svg>