<?xml version="1.0" encoding="UTF-8" standalone="no"?>
<!-- Created with Inkscape (http://www.inkscape.org/) -->

<svg
   xmlns:dc="http://purl.org/dc/elements/1.1/"
   xmlns:cc="http://creativecommons.org/ns#"
   xmlns:rdf="http://www.w3.org/1999/02/22-rdf-syntax-ns#"
   xmlns:svg="http://www.w3.org/2000/svg"
   xmlns="http://www.w3.org/2000/svg"
   xmlns:sodipodi="http://sodipodi.sourceforge.net/DTD/sodipodi-0.dtd"
   xmlns:inkscape="http://www.inkscape.org/namespaces/inkscape"
   width="134.42799"
   height="131.3942"
   viewBox="0 0 35.567406 34.764713"
   version="1.1"
   id="svg12244"
   inkscape:version="0.92.0 r15299"
   sodipodi:docname="hammerson.svg">
  <defs
     id="defs12238" />
  <sodipodi:namedview
     id="base"
     pagecolor="#ffffff"
     bordercolor="#666666"
     borderopacity="1.0"
     inkscape:pageopacity="0.0"
     inkscape:pageshadow="2"
     inkscape:zoom="4.0564958"
     inkscape:cx="50.213997"
     inkscape:cy="65.697098"
     inkscape:document-units="mm"
     inkscape:current-layer="layer1"
     showgrid="false"
     fit-margin-top="0"
     fit-margin-left="0"
     fit-margin-right="0"
     fit-margin-bottom="0"
     units="px"
     inkscape:measure-start="83.3339,101.8"
     inkscape:measure-end="49.3946,101.781"
     inkscape:window-width="1280"
     inkscape:window-height="744"
     inkscape:window-x="-4"
     inkscape:window-y="-4"
     inkscape:window-maximized="1" />
  <metadata
     id="metadata12241">
    <rdf:RDF>
      <cc:Work
         rdf:about="">
        <dc:format>image/svg+xml</dc:format>
        <dc:type
           rdf:resource="http://purl.org/dc/dcmitype/StillImage" />
        <dc:title></dc:title>
      </cc:Work>
    </rdf:RDF>
  </metadata>
  <g
     inkscape:label="Layer 1"
     inkscape:groupmode="layer"
     id="layer1"
     transform="translate(-130.47746,-168.36036)">
    <g
       id="g12321"
       style="fill:#3d7fe0;fill-opacity:1"
       transform="translate(9.128125,-0.13228494)">
      <path
         inkscape:connector-curvature="0"
         id="path12020"
         style="fill:#3d7fe0;fill-opacity:1;fill-rule:nonzero;stroke:none;stroke-width:0.35277778"
         d="m 130.47746,203.1249 h 12.94906 v -14.13828 h -12.94906 z" />
      <path
         inkscape:connector-curvature="0"
         id="path12022"
         style="fill:#3d7fe0;fill-opacity:1;fill-rule:nonzero;stroke:none;stroke-width:0.35277778"
         d="m 130.47746,181.93989 h 12.94906 v -13.31454 h -12.94906 z" />
      <path
         d="m 152.39413,168.62494 v 1.14159 h 1.79881 v 1.64782 h -1.79881 v 1.14124 h 4.39032 v -1.14124 h -1.69439 v -1.64782 h 1.69439 v -1.14159 z"
         style="fill:#3d7fe0;fill-opacity:1;fill-rule:nonzero;stroke:none;stroke-width:0.35277778"
         id="path12026"
         inkscape:connector-curvature="0" />
      <path
         d="m 152.39392,176.3227 v -1.05974 h 0.33196 v -0.0113 c -0.29668,-0.18662 -0.43074,-0.55351 -0.43074,-0.90276 0,-0.88512 0.73942,-1.50813 1.59526,-1.50813 0.85584,0 1.58962,0.61137 1.58962,1.49649 0,0.34325 -0.12806,0.70485 -0.39017,0.92569 h 0.29104 v 1.05974 z m 1.49084,-2.38725 c -0.37853,0 -0.66957,0.25048 -0.66957,0.68157 0,0.43039 0.29104,0.68086 0.66957,0.68086 0.36653,0 0.67522,-0.25047 0.67522,-0.68086 0,-0.43109 -0.30869,-0.68157 -0.67522,-0.68157"
         style="fill:#3d7fe0;fill-opacity:1;fill-rule:nonzero;stroke:none;stroke-width:0.35277778"
         id="path12038"
         inkscape:connector-curvature="0" />
      <path
         d="m 155.00834,177.78434 v 0.012 c 0.33196,0.24977 0.47131,0.55845 0.47131,0.94263 0,0.43109 -0.17427,0.80398 -0.57044,1.01952 0.37289,0.20356 0.57044,0.60537 0.57044,1.01283 0,0.75706 -0.49459,1.01882 -1.18145,1.01882 h -1.90394 v -1.05974 h 1.42628 c 0.30868,0 0.81491,0.0116 0.81491,-0.43639 0,-0.4893 -0.45967,-0.50659 -0.81491,-0.50659 h -1.42628 v -1.05974 h 1.42628 c 0.33161,0 0.83855,0 0.83855,-0.47167 0,-0.47166 -0.50694,-0.47166 -0.83855,-0.47166 h -1.42628 v -1.05974 h 2.98697 v 1.05974 z"
         style="fill:#3d7fe0;fill-opacity:1;fill-rule:nonzero;stroke:none;stroke-width:0.35277778"
         id="path12042"
         inkscape:connector-curvature="0" />
      <path
         d="m 155.00834,183.22873 v 0.012 c 0.33196,0.24977 0.47131,0.55845 0.47131,0.94263 0,0.43109 -0.17427,0.80362 -0.57044,1.01952 0.37289,0.20356 0.57044,0.60502 0.57044,1.01283 0,0.75706 -0.49459,1.01882 -1.18145,1.01882 h -1.90394 v -1.05974 h 1.42628 c 0.30868,0 0.81491,0.0116 0.81491,-0.43639 0,-0.4893 -0.45967,-0.50659 -0.81491,-0.50659 h -1.42628 v -1.05974 h 1.42628 c 0.33161,0 0.83855,0 0.83855,-0.47167 0,-0.47166 -0.50694,-0.47166 -0.83855,-0.47166 h -1.42628 V 182.169 h 2.98697 v 1.05974 z"
         style="fill:#3d7fe0;fill-opacity:1;fill-rule:nonzero;stroke:none;stroke-width:0.35277778"
         id="path12046"
         inkscape:connector-curvature="0" />
      <path
         d="m 153.70995,190.80981 v -2.22991 c -0.43109,0 -0.66393,0.22684 -0.66393,0.66358 0,0.22719 0.0759,0.39017 0.27376,0.50659 v 1.01882 c -0.7045,-0.16863 -1.02482,-0.8382 -1.02482,-1.51942 0,-0.98989 0.5588,-1.72931 1.58961,-1.72931 0.99554,0 1.59527,0.68086 1.59527,1.65347 0,1.03646 -0.6403,1.63618 -1.65947,1.63618 z m 0.61136,-0.9839 c 0.28505,-0.0526 0.47167,-0.31467 0.47167,-0.60007 0,-0.30833 -0.16299,-0.5648 -0.47167,-0.62865 z"
         style="fill:#3d7fe0;fill-opacity:1;fill-rule:nonzero;stroke:none;stroke-width:0.35277778"
         id="path12050"
         inkscape:connector-curvature="0" />
      <path
         d="m 154.8919,192.18987 v 0.012 c 0.36689,0.20356 0.52987,0.55245 0.52987,0.96626 v 0.20391 h -1.01917 c 0.0818,-0.1457 0.0991,-0.28575 0.0991,-0.44838 0,-0.58844 -0.39017,-0.73378 -0.90241,-0.73378 h -1.20509 v -1.05974 h 2.98697 v 1.05974 z"
         style="fill:#3d7fe0;fill-opacity:1;fill-rule:nonzero;stroke:none;stroke-width:0.35277778"
         id="path12054"
         inkscape:connector-curvature="0" />
      <path
         d="m 154.61239,195.52037 c 0.0871,-0.16298 0.14534,-0.39017 0.14534,-0.57044 0,-0.12242 -0.0522,-0.33197 -0.20355,-0.33197 -0.20355,0 -0.23283,0.33197 -0.26176,0.47731 -0.0991,0.49495 -0.33196,0.86748 -0.88512,0.86748 -0.78634,0 -1.11231,-0.71614 -1.11231,-1.40899 0,-0.4251 0.12242,-0.8442 0.34326,-1.20509 l 0.73977,0.38418 c -0.15134,0.21554 -0.30268,0.57643 -0.30268,0.8382 0,0.1344 0.0639,0.33196 0.22683,0.33196 0.23319,0 0.24448,-0.33196 0.33197,-0.66358 0.0875,-0.33196 0.25047,-0.66392 0.78599,-0.66392 0.73377,0 1.05974,0.66392 1.05974,1.31621 0,0.33761 -0.0522,0.67522 -0.19191,0.98354 z"
         style="fill:#3d7fe0;fill-opacity:1;fill-rule:nonzero;stroke:none;stroke-width:0.35277778"
         id="path12058"
         inkscape:connector-curvature="0" />
      <path
         d="m 153.88458,199.72425 c -1.01282,0 -1.58926,-0.8382 -1.58926,-1.79881 0,-0.95533 0.57044,-1.79952 1.58926,-1.79952 1.01882,0 1.59526,0.83855 1.59526,1.79952 0,0.96061 -0.57644,1.79881 -1.59526,1.79881 m 0,-2.48038 c -0.37818,0 -0.66957,0.25047 -0.66957,0.68157 0,0.43039 0.29139,0.68086 0.66957,0.68086 0.36689,0 0.67557,-0.25047 0.67557,-0.68086 0,-0.4311 -0.30868,-0.68157 -0.67557,-0.68157"
         style="fill:#3d7fe0;fill-opacity:1;fill-rule:nonzero;stroke:none;stroke-width:0.35277778"
         id="path12062"
         inkscape:connector-curvature="0" />
      <path
         d="m 154.9967,201.0345 v 0.012 c 0.36089,0.24448 0.48331,0.54117 0.48331,0.95462 0,0.80328 -0.50659,1.12395 -1.24037,1.12395 h -1.84573 v -1.0601 h 1.45556 c 0.28575,0 0.78634,0.0466 0.78634,-0.4773 0,-0.43075 -0.32032,-0.55316 -0.69286,-0.55316 h -1.54904 v -1.05974 h 2.98696 v 1.05974 z"
         style="fill:#3d7fe0;fill-opacity:1;fill-rule:nonzero;stroke:none;stroke-width:0.35277778"
         id="path12066"
         inkscape:connector-curvature="0" />
    </g>
  </g>
</svg>
