<svg xmlns="http://www.w3.org/2000/svg" height="800" width="1200" viewBox="-25.80747 -7.7224 223.66474 46.3344"><path d="M38.8408 15.2244c1.137 0 2.0595-.9223 2.0595-2.0593 0-1.1369-.9223-2.0582-2.0595-2.0582-1.1369 0-2.0592.9213-2.0592 2.0582 0 1.1372.922 2.0593 2.0592 2.0593" fill="#826e50"/><path d="M65.0539 3.5872a2.044 2.044 0 00.1802-.8403c0-1.137-.9213-2.0582-2.0582-2.0582-1.1383 0-2.0595.9213-2.0595 2.0582 0 1.138.9212 2.0593 2.0595 2.0593.149 0 .2945-.0161.4347-.0474.697-.1157 1.2308-.5395 1.4433-1.1716" fill="#7ecdc3"/><path d="M161.1244 26.771c-1.137 0-2.0593.9224-2.0593 2.0593 0 1.1372.9224 2.0593 2.0593 2.0593 1.1371 0 2.0592-.9221 2.0592-2.0593 0-1.1369-.9223-2.0592-2.0592-2.0592" fill="#0054a4"/><path d="M14.682 3.778C13.124 2.22 11.0993.779 9.5417.4284V0c1.5578 0 3.8944.3117 5.1403.6234zM7.4769 24.7306c2.0259-.4281 4.206-1.5965 4.206-4.712 0-2.3368-1.2459-3.2718-4.2447-4.8297l-2.0637-1.0517C2.492 12.5794.1553 10.7876.1553 7.2827.1553 2.8813 4.1672.1953 7.944 0v.4284C6.1143.6236 4.3225 2.0249 4.3225 4.206c0 2.5318 1.013 3.2718 4.4402 5.1414l1.7518.8953c2.9213 1.5576 5.4531 2.9213 5.4531 7.0485 0 4.752-4.0897 7.6721-8.491 7.8674v-.4281zm-1.5965.4284C3.5438 25.12 1.44 24.7695 0 24.3025v-3.4663c1.752 1.9084 3.7378 3.193 5.8804 3.8944zm23.006-11.407c0-1.7994-.9353-2.699-2.7712-2.699-.8274 0-1.6193.2524-2.4466.7561v-.288c1.0443-1.4392 3.0593-2.7346 5.2535-2.7346 3.0594 0 4.4628 1.7627 4.4628 4.6051v11.4792h-4.4985zM18.415.5813L22.9489.113v24.7576H18.415zm47.0273 19.6474v-9.644H63.176v-1.547h2.2664V5.1508l4.4985-1.5825v5.4692h4.6418v1.547h-4.6418v9.176c0 1.9794.5749 3.204 2.591 3.204 1.0075 0 2.123-.2882 2.5546-.5774v.4326c-.6485 1.1155-2.5191 2.3389-5.1102 2.3389-2.9869 0-4.5339-1.5835-4.5339-4.93m15.9217-5.2532l4.6051-.396c0-3.2028-.7197-5.218-1.8706-5.4693v-.3238c4.138.287 5.865 3.3097 5.865 6.5492H81.364v-.36zm-5.794 1.7992c0-4.4617 3.6342-7.701 7.4845-7.988v.3238c-2.0506.5395-2.8782 2.591-2.8782 6.2254 0 4.4251 2.123 6.4767 5.289 6.4767 2.0151 0 3.5264-.6472 4.6422-1.5113v.4683c-.683 1.727-2.698 4.3895-6.6927 4.3895-5.0736-.0003-7.8449-3.778-7.8449-8.3844m27.364-4.6776c-1.2589-1.4401-2.4466-2.4476-3.9936-2.9871v-.3604c1.547.108 3.0229.3247 3.9936.6117zm-6.0454 13.0614c-1.4034-.1076-3.2018-.2868-4.3538-.6117v-3.1305c1.4756 1.548 2.9504 2.8792 4.3538 3.4184zm1.08-.3235c1.2954-.2511 2.6633-1.043 2.6633-2.7345 0-1.4036-.8641-2.015-2.4477-2.7348l-2.3032-1.044c-1.7626-.7908-3.4541-2.0865-3.4541-4.5696 0-2.591 2.3386-4.7141 5.6137-5.0022V9.11c-1.152.1434-2.2675.8274-2.2675 2.1585 0 1.2957.684 1.9796 1.9799 2.5556l2.9149 1.3311c2.015.9708 3.274 2.3755 3.274 4.5342 0 3.275-2.2665 5.2178-5.973 5.4692v-.3238zm16.6891.0005c2.4834-.1802 4.2106-2.5543 4.2106-7.7724 0-4.355-1.1155-6.4778-3.7425-6.4778-1.1875 0-2.1596.3236-2.9147.9363v-.3603c.9718-1.1877 2.7713-2.4112 5.0734-2.4112 4.1746 0 6.2979 2.807 6.2979 7.7005 0 5.0744-2.9872 8.3849-8.9247 8.7087zm-.9353.3236c-2.5913-.108-5.3258-.4683-6.873-.9353V.6173l4.5341-.5038v23.7863c.5752.4315 1.655.8276 2.339.9353zM136.725 9.2176l4.5342-.5395v15.9051l-4.5342.4673zm-10.436 11.1553V9.2176l4.4985-.5395v11.4435c0 1.7983.8996 2.698 2.7347 2.698.8274 0 1.6547-.2514 2.4834-.7917v.2879c-.8644 1.44-2.8437 2.807-5.0022 2.807-3.3107.0002-4.7143-1.9072-4.7143-4.7499m23.3262-7.0527c.396-2.4477 1.9441-4.5707 4.3907-4.5707.467 0 .863.0722 1.1155.1802v3.671c-.396-.1444-.972-.2523-1.6917-.2523-1.4391 0-2.8067.3603-3.8145 1.331zm-5.3616-4.1024l4.5342-.4683v16.1221h-4.5342zM40.5559 20.4449c0-1.6904.4683-2.3744 1.0075-2.8424.684-.3959 1.7994-.8274 2.807-1.152v-.3239c-1.7995.3961-4.354.972-5.1824 1.2602-1.4391.576-3.0226 1.4036-3.0226 3.8502 0 2.1953 1.4758 3.9222 4.3182 3.9222 2.411 0 3.5264-1.439 3.9947-2.3032v-.2878c-.4315.3236-1.0075.8273-2.0505.8273-1.4039-.0002-1.872-1.1147-1.872-2.9506" fill="#8f9193"/><path d="M44.2621 8.75c-1.9793 0-4.138.7197-5.1099 1.4391v.325c.576-.2525 1.4402-.3604 2.3387-.3604 2.4834 0 3.7433.8995 3.7433 3.67V24.871h4.534V13.1408c0-3.1308-2.1953-4.3908-5.506-4.3908m14.0917-4.642c0-2.4467 1.6914-3.4542 3.275-3.6344V.15c-3.9225.2879-7.8092 1.547-7.8092 5.973v2.9149h-2.123v1.547h2.123v14.286h4.5342v-14.286h3.3464V9.038h-3.3464zM161.47 9.0379h-4.7496l5.0128 11.121c1.2999 2.9977 1.9828 5.4745 1.655 6.4238l.2534.1889 2.6937-6.081-.013-.002.1855-.4227zm6.8497 0c.209 1.8759-.2201 6.1405-.6075 7.807l.207.1813c1.1921-2.6524 2.9072-6.1889 4.1306-7.988h-3.73z" fill="#8f9193"/></svg>